<svg width="800" height="360" viewBox="0 0 800 360" fill="none" xmlns="http://www.w3.org/2000/svg">
<path fill-rule="evenodd" clip-rule="evenodd" d="M16 180C16 258.667 176.933 324 400.067 324C623.2 324 784 258.667 784 180C784 101.333 623.067 36 400.067 36C177.033 36 16 101.333 16 180ZM392.567 121.933H531.767V154.067C528.333 152.5 525 152.5 521.567 152.5H462.967V167.833H519.267V192.233H462.967V207.467H521.567C525 207.467 528.333 207.467 531.767 205.8V238.033H392.567C394.3 234.667 394.3 231.433 394.3 228.067V132C394.3 128.633 394.3 125.4 392.567 121.933ZM156.7 132V228.033C156.7 231.4 156.7 234.633 158.433 238H80C81.7333 234.633 81.7333 231.4 81.7333 228.033V132C81.7333 128.633 81.7333 125.4 80 122.033H158.433C156.7 125.4 156.7 128.633 156.7 132ZM371.6 228.033C374.133 231.6 376.867 234.967 380.1 238H293.5C293.5 234.633 290.167 227.8 286.5 222.433C282.833 217.067 263 187.633 263 187.633V228.033C263 231.4 263 234.633 264.733 238H192.6C194.333 234.633 194.333 231.4 194.333 228.033V132C194.333 128.633 194.333 125.4 192.6 122.033H264.733C263 125.4 263 128.633 263 132V173.967C263 173.967 286.033 144.633 291.333 137.8C295.333 132.667 300.267 125.367 300.267 122.033H375.5C370.333 125.4 364.6 131.433 359.9 137.033L332.367 169.833C332.367 169.833 367 221.433 371.6 228.033ZM716.133 116H715.1C713.139 116.03 711.204 116.45 709.406 117.234C707.609 118.019 705.986 119.152 704.63 120.57C703.275 121.987 702.215 123.66 701.511 125.49C700.808 127.321 700.476 129.273 700.533 131.233C700.533 131.467 700.533 131.8 700.433 132C700.598 136.103 702.381 139.974 705.392 142.766C708.402 145.558 712.396 147.044 716.5 146.9C718.531 146.874 720.537 146.448 722.404 145.646C724.27 144.845 725.961 143.684 727.378 142.229C728.796 140.774 729.913 139.054 730.666 137.168C731.419 135.281 731.793 133.264 731.767 131.233V130.667C731.706 128.676 731.254 126.717 730.435 124.902C729.616 123.087 728.447 121.451 726.995 120.088C725.542 118.726 723.835 117.663 721.971 116.962C720.108 116.26 718.124 115.933 716.133 116ZM686.178 130.322C685.062 127.595 683.968 124.926 684.733 122.167H584.167C584.621 125.441 583.435 128.589 582.204 131.857L582.1 132.133L546.433 228.167C545.321 231.818 543.485 235.208 541.033 238.133H600.533C600.162 235.457 600.887 232.864 601.769 230.222C601.895 229.844 602.024 229.466 602.154 229.086C602.258 228.78 602.363 228.474 602.467 228.167C603.6 224.8 604.867 221.567 604.867 221.567L605.567 219.767H649.033L649.733 221.433C651.333 225.367 652.5 228.033 652.5 228.033C653.867 231.4 655.133 234.633 654.8 238H730.233C727.687 235.103 725.769 231.709 724.6 228.033C712.105 196.039 699.538 164.072 686.9 132.133C686.7 131.602 686.486 131.073 686.271 130.547C686.24 130.473 686.209 130.396 686.178 130.322Z" fill="black"/>
<path fill-rule="evenodd" clip-rule="evenodd" d="M621.082 177.993C620.862 178.58 620.635 179.187 620.401 179.814C618.76 184.202 616.772 189.53 614.667 195.233H639.533L629 168.367C628.067 165.9 627.267 163.333 626.7 160.767C626.233 163.333 625.567 165.9 624.633 168.367C624.455 168.972 623.097 172.605 621.082 177.993Z" fill="black"/>
<path fill-rule="evenodd" clip-rule="evenodd" d="M707.371 139.908C709.712 142.193 712.862 143.46 716.133 143.433C723.033 143.433 728.633 137.933 728.633 131.233C728.633 124.533 723 119.033 716.133 119.033C714.57 118.953 713.006 119.181 711.532 119.705C710.057 120.23 708.7 121.04 707.539 122.09C706.378 123.14 705.435 124.408 704.765 125.823C704.095 127.237 703.71 128.77 703.633 130.333V131.233C703.686 134.505 705.029 137.623 707.371 139.908ZM723.133 127.867C723.134 126.31 722.522 124.816 721.431 123.706C720.34 122.596 718.856 121.96 717.3 121.933H710.3V140.3H713.067V133.8H717.067L720.733 140.3H723.833L719.833 133.233C720.817 132.721 721.644 131.951 722.225 131.006C722.806 130.061 723.12 128.976 723.133 127.867Z" fill="black"/>
<path fill-rule="evenodd" clip-rule="evenodd" d="M716.833 131.233H713.033V124.867H717.167C719 124.867 720.267 126.433 720.267 128.233C720.267 130 718.667 131.333 716.833 131.233Z" fill="black"/>
</svg>
