<svg width="972" height="200" viewBox="0 0 972 200" fill="none" xmlns="http://www.w3.org/2000/svg">
<g clip-path="url(#clip0_4711_11402)">
<path fill-rule="evenodd" clip-rule="evenodd" d="M200 100C200 155.2 155.2 200 100 200C44.8 200 0 155.2 0 100C0 44.8 44.8 0 100 0C155.2 0 200 44.8 200 100ZM167.3 99.9999C167.3 137.2 137.2 167.3 99.9999 167.3C62.7999 167.3 32.7 137.2 32.7 99.9999C32.7 62.7999 62.7999 32.7 99.9999 32.7C137.2 32.7 167.3 62.7999 167.3 99.9999ZM151.6 99.9999C151.6 128.5 128.5 151.6 99.9999 151.6C71.4999 151.6 48.4 128.5 48.4 99.9999C48.4 71.4999 71.4999 48.3999 99.9999 48.3999C128.5 48.3999 151.6 71.4999 151.6 99.9999Z" fill="black"/>
<path d="M328 60.5C319.2 60.5 307.7 64.7 303 74.6V62.1H292.2V137.9H303V96.5C303 78 316.1 71.2 328 71.2C339.6 71.2 346.2 79.8 346.2 93.7V137.9H357V93.8C357.2 73.2 346.4 60.5 328 60.5Z" fill="black"/>
<path d="M497.8 60.5C489 60.5 477.5 64.7 472.8 74.6V62.1H462V137.9H472.8V96.5C472.8 78 485.9 71.2 497.8 71.2C509.4 71.2 516 79.8 516 93.7V137.9H526.8V93.8C527 73.2 516.2 60.5 497.8 60.5Z" fill="black"/>
<path d="M546.9 62.2031V138.003H557.6L557.5 62.2031H546.9Z" fill="black"/>
<path d="M695.7 99.8016C695.7 75.8016 680.3 60.6016 658.8 60.6016C637.3 60.6016 620.7 75.8016 620.7 99.8016C620.7 123.801 637.2 139.501 658.9 139.501C674 139.501 687.1 131.501 693.2 118.001C689.8 117.201 685.6 116.401 682.4 115.601C677.7 123.901 669 128.801 658.9 128.801C644.9 128.801 633.7 120.201 631.8 105.401H695.6C695.7 104.001 695.7 101.401 695.7 99.8016ZM631.7 94.7016C633.8 80.3016 644.9 71.2016 658.8 71.2016C672.6 71.2016 682.6 80.2016 684.7 94.7016H631.7Z" fill="black"/>
<path d="M439.2 62.1016H428.5V137.901H439.2V62.1016Z" fill="black"/>
<path d="M269 62.1016H258.2V137.901H269V62.1016Z" fill="black"/>
<path d="M598.5 27.2031H587.7V62.2031H575.4V73.0031H587.7V138.003H598.5V73.0031H610.8V62.2031H598.5V27.2031Z" fill="black"/>
<path d="M407.1 27.2031C387.3 27.2031 380.8 41.3031 380.8 59.5031V62.1031H368.5V72.8031H380.8V138.003H391.6V72.8031H411.5V62.2031H391.6V59.6031C391.4 49.6031 392.7 37.6031 407 37.6031H415V27.3031L407.1 27.2031Z" fill="black"/>
<path d="M263.6 27.2031H263.3C259 27.3031 255.7 30.8031 255.7 35.1031C255.7 39.5031 259.2 43.0031 263.6 43.0031C268 43.0031 271.5 39.5031 271.5 35.1031C271.4 30.7031 267.9 27.2031 263.6 27.2031Z" fill="black"/>
<path d="M552.2 27.2031C547.9 27.2031 544.4 30.7031 544.3 35.1031C544.3 39.5031 547.8 43.0031 552.2 43.0031C556.5 43.0031 560.1 39.5031 560.1 35.1031C560.1 30.7031 556.6 27.2031 552.2 27.2031Z" fill="black"/>
<path d="M433.9 27.1016H433.7C429.4 27.2016 426.1 30.7016 426.1 35.0016C426.1 39.4016 429.6 42.9016 433.9 42.9016C438.2 42.9016 441.8 39.4016 441.8 35.0016C441.7 30.7016 438.2 27.1016 433.9 27.1016Z" fill="black"/>
<path d="M755.5 60.5C745.6 60.5 736 64.9 732 72.4V62.2H712.4V174.8H732V127.9C736 135.5 745.7 139.6 755.5 139.6C775.2 139.6 792.3 124.2 792.3 100C792.3 76.1 775.2 60.5 755.5 60.5ZM752.3 120.7C742 120.7 732.4 113.4 732.3 100.3C732.3 87.6 741.4 79.5 752.3 79.5C763.2 79.5 772.1 88 772.1 100.3C772.1 112.6 763.1 120.7 752.3 120.7Z" fill="black"/>
<path d="M862.7 62.2V71.6C857.2 63.1 846.1 60.5 839.3 60.5C819.5 60.5 800.9 75.7 800.9 100C800.9 124.2 819.4 139.5 839.3 139.5C846.7 139.5 857.8 136.1 862.7 128.3V138H882.3V62.2H862.7ZM842.1 120.3H841.8C830.5 120.4 821.4 111.2 821.3 99.9C821.3 87.6 831.3 79.5 842.1 79.5C852.4 79.5 862.8 87 862.8 99.9C862.7 112.9 852.7 120.3 842.1 120.3Z" fill="black"/>
<path d="M951.1 62L932.3 109.1L913.6 62H892.5L921.5 132.9L904.8 174.5H925.5L971.9 62H951.1Z" fill="black"/>
</g>
<defs>
<clipPath id="clip0_4711_11402">
<rect width="972" height="200" fill="white"/>
</clipPath>
</defs>
</svg>
