<svg width="972" height="178" viewBox="0 0 972 178" fill="none" xmlns="http://www.w3.org/2000/svg">
<g clip-path="url(#clip0_4714_11431)">
<path d="M92.6096 126.284C92.6096 130.838 92.3656 135.048 91.8775 138.912C91.39 142.777 90.5886 146.089 89.4734 148.85C87.6653 153.258 85.1598 157.347 82.0527 160.96C78.9165 164.617 75.2581 167.722 71.0775 170.275C66.8964 172.829 62.2624 174.83 57.1756 176.28C52.0878 177.729 46.757 178.453 41.1832 178.453C24.3195 178.453 10.5918 170.793 0 155.474L26.7581 128.353C27.4552 133.046 28.9884 136.773 31.3576 139.533C33.7269 142.293 36.6535 143.674 40.1375 143.674C47.8027 143.674 51.6352 137.67 51.6352 125.662V18.0116H92.6096V126.284ZM934.16 63.9728C946.007 63.9728 957.503 66.2501 968.659 70.8041L955.901 95.2325C948.938 91.6444 942.103 89.85 935.413 89.85C931.935 89.85 929.111 90.5403 926.946 91.9208C924.79 93.3009 923.711 95.1639 923.711 97.5098C923.711 98.7522 923.886 99.7528 924.235 100.512C924.577 101.271 925.344 101.995 926.529 102.686C927.713 103.375 929.46 103.997 931.761 104.549C934.054 105.101 937.091 105.791 940.85 106.619C951.307 108.689 959.106 112.381 964.262 117.695C969.418 123.008 972 129.805 972 138.086C972 144.296 970.747 149.887 968.233 154.856C965.728 159.824 962.242 163.998 957.784 167.38C953.327 170.761 947.958 173.384 941.686 175.246C935.413 177.109 928.518 178.042 920.993 178.042C906.496 178.042 892.212 173.97 878.134 165.827L891.932 139.329C902.525 146.505 912.564 150.094 922.041 150.094C925.519 150.094 928.381 149.334 930.606 147.816C932.839 146.298 933.955 144.366 933.955 142.019C933.955 140.64 933.781 139.501 933.431 138.603C933.082 137.707 932.353 136.878 931.237 136.119C930.12 135.361 928.48 134.671 926.324 134.049C924.159 133.429 921.342 132.773 917.856 132.083C906.147 129.737 897.961 126.252 893.291 121.628C888.621 117.005 886.289 110.621 886.289 102.478C886.289 96.5439 887.406 91.1956 889.631 86.4343C891.863 81.6731 895.068 77.6362 899.252 74.3238C903.428 71.0114 908.486 68.4584 914.409 66.664C920.332 64.8699 926.916 63.9728 934.16 63.9728ZM142.526 127.733C142.526 140.844 148.936 147.4 161.758 147.4C174.58 147.4 180.991 140.844 180.991 127.733V67.9041H218.829V134.979C218.829 149.332 214.056 160.097 204.509 167.274C194.962 174.451 180.712 178.039 161.758 178.039C142.804 178.039 128.554 174.451 119.008 167.274C109.461 160.097 104.687 149.332 104.687 134.979V67.9033H142.526V127.733ZM564.042 127.733C564.042 140.844 570.453 147.4 583.274 147.4C596.096 147.4 602.507 140.844 602.507 127.733V67.9041H640.345V134.979C640.345 149.332 635.572 160.096 626.026 167.274C616.479 174.451 602.228 178.039 583.274 178.039C564.32 178.039 550.07 174.451 540.523 167.274C530.976 160.097 526.203 149.332 526.203 134.979V67.9033H564.042V127.733ZM365.933 64.5932C379.313 64.5932 390.392 69.2165 399.172 78.4632V67.9056H437.22V174.107H399.172V162.307C391.088 172.382 380.148 177.42 366.351 177.42C358.546 177.42 351.369 176.005 344.819 173.176C338.268 170.346 332.554 166.378 327.677 161.272C322.799 156.166 319.001 150.162 316.283 143.261C313.566 136.36 312.207 128.838 312.207 120.695C312.207 113.105 313.531 105.894 316.179 99.062C318.826 92.2301 322.52 86.2609 327.259 81.1544C331.998 76.0479 337.642 72.011 344.192 69.0439C350.742 66.0763 357.989 64.5927 365.933 64.5932ZM712.223 64.5902C721.422 64.5902 729.923 66.5223 737.727 70.3865V102.268C731.177 97.8515 724.557 95.6433 717.868 95.6433C714.245 95.6433 710.865 96.2642 707.729 97.506C704.593 98.7484 701.841 100.508 699.471 102.785C697.102 105.063 695.255 107.754 693.931 110.859C692.607 113.965 691.946 117.45 691.946 121.314C691.946 125.04 692.607 128.456 693.931 131.562C695.255 134.667 697.067 137.358 699.367 139.635C701.667 141.913 704.42 143.672 707.625 144.915C710.83 146.156 714.245 146.777 717.868 146.777C724.976 146.777 731.596 144.362 737.727 139.532V171.413C728.39 175.416 719.54 177.417 711.178 177.417C703.374 177.417 695.952 176.106 688.914 173.484C681.876 170.861 675.674 167.1 670.309 162.201C664.942 157.301 660.657 151.436 657.452 144.604C654.247 137.772 652.644 130.147 652.644 121.729C652.644 113.31 654.177 105.616 657.244 98.6451C660.31 91.6745 664.491 85.6709 669.786 80.6342C675.082 75.5965 681.389 71.663 688.706 68.8335C696.022 66.0046 703.861 64.5902 712.223 64.5902ZM303.354 65.6282C304.539 65.6282 305.898 65.7662 307.431 66.0421V101.857C302.414 99.3731 296.979 98.131 291.125 98.131C282.345 98.131 275.76 100.718 271.369 105.893C266.98 111.069 264.785 118.626 264.785 128.563V174.107H226.946V67.9056H264.785V85.2953C268.826 78.9469 273.774 74.0818 279.627 70.7001C285.48 67.3183 292.31 65.6275 300.115 65.6275L303.354 65.6282ZM504.072 0C507.277 0 510.239 0.345009 512.956 1.03503C515.674 1.72505 518.427 2.69122 521.214 3.93356V36.6429C518.705 35.4005 516.371 34.469 514.21 33.8484C512.05 33.2267 509.785 32.9161 507.416 32.9166C505.882 32.9166 504.315 33.1581 502.712 33.6411C501.11 34.124 499.612 35.1246 498.218 36.6429C496.825 38.1611 495.884 40.335 495.396 43.1644C494.908 45.9938 494.664 49.8236 494.664 54.6537V67.9033H521.214V99.1637H494.664V174.105H456.826V99.1637H443.238V67.9033H456.826V51.9625C456.826 43.1295 457.662 36.0906 459.335 30.8458C460.728 26.4293 462.958 22.3236 466.024 18.5287C469.09 14.7329 472.679 11.4549 476.79 8.69484C480.891 5.94095 485.36 3.78066 490.065 2.27812C494.803 0.759375 499.472 0.000253125 504.072 0.000759375M793.091 81.3587C798.247 75.148 803.472 70.9727 808.765 68.8328C814.065 66.6936 820.269 65.6244 827.369 65.6244C840.894 65.6244 851.1 69.3165 858.003 76.6999C864.898 84.0836 868.345 94.0552 868.345 106.615V174.103H830.506V120.485C830.506 115.103 830.088 110.755 829.253 107.442C828.417 104.13 827.028 101.577 825.076 99.7826C821.727 96.8849 817.687 95.436 812.949 95.436C806.54 95.436 801.627 97.3336 798.209 101.129C794.8 104.924 793.091 110.341 793.091 117.38V174.103H755.251V2.27585H793.091V81.3587ZM375.961 96.8894C372.477 96.8894 369.237 97.5106 366.24 98.7529C363.244 99.9947 360.666 101.72 358.505 103.928C356.358 106.119 354.623 108.678 353.383 111.485C352.13 114.314 351.503 117.385 351.503 120.697C351.503 124.147 352.13 127.356 353.383 130.323C354.638 133.291 356.346 135.879 358.505 138.087C360.666 140.295 363.244 142.02 366.24 143.262C369.237 144.504 372.477 145.125 375.961 145.126C379.306 145.126 382.476 144.505 385.473 143.262C388.47 142.02 391.048 140.295 393.208 138.087C395.368 135.879 397.111 133.325 398.435 130.427C399.759 127.528 400.421 124.423 400.421 121.11C400.421 117.799 399.759 114.659 398.435 111.692C397.111 108.725 395.369 106.137 393.208 103.928C391.048 101.72 388.47 99.9953 385.473 98.7529C382.476 97.5106 379.306 96.8894 375.961 96.8894Z" fill="#FAFAFA"/>
</g>
<defs>
<clipPath id="clip0_4714_11431">
<rect width="972" height="177.694" fill="white"/>
</clipPath>
</defs>
</svg>
