<svg width="141" height="28" viewBox="0 0 141 28" fill="none" xmlns="http://www.w3.org/2000/svg">
<path d="M8.1022 0.372447L16.4402 21.0698H16.7603L25.1151 0.372447H33.2005L21.3083 27.6143H11.9091L0 0.372447H8.1022Z" fill="white"/>
<path d="M42.749 0.372447V27.6143H35.4553V0.372447H42.749Z" fill="white"/>
<path d="M46.4819 27.6143V24.1957L63.6969 5.12114H46.4482V0.372447H72.8603V3.79097L55.6284 22.8656H72.894V27.6143H46.4819Z" fill="white"/>
<path d="M97.9015 0.372447H105.195V18.0637C105.195 20.05 104.594 21.7881 103.393 23.2779C102.202 24.7677 100.535 25.9294 98.39 26.7629C96.2451 27.5876 93.7465 28 90.8942 28C88.0306 28 85.5264 27.5876 83.3816 26.7629C81.2367 25.9294 79.5691 24.7677 78.3788 23.2779C77.1884 21.7881 76.5932 20.05 76.5932 18.0637V0.372447H83.8869V17.5715C83.8869 18.609 84.1733 19.5313 84.746 20.3382C85.3299 21.1452 86.1497 21.7793 87.2053 22.2404C88.2608 22.7015 89.4905 22.9321 90.8942 22.9321C92.3091 22.9321 93.5388 22.7015 94.5832 22.2404C95.6387 21.7793 96.4529 21.1452 97.0256 20.3382C97.6095 19.5313 97.9015 18.609 97.9015 17.5715V0.372447Z" fill="white"/>
<path d="M141 13.9933C141 16.9641 140.287 19.4914 138.861 21.5753C137.446 23.6592 135.514 25.251 133.066 26.3506C130.629 27.4413 127.889 27.9867 124.846 27.9867C121.78 27.9867 119.029 27.4369 116.592 26.3373C114.155 25.2377 112.23 23.6459 110.815 21.562C109.4 19.4781 108.692 16.9552 108.692 13.9933C108.692 11.0226 109.4 8.49533 110.815 6.4114C112.23 4.32747 114.155 2.74014 116.592 1.64941C119.029 0.549802 121.78 0 124.846 0C127.889 0 130.629 0.549802 133.066 1.64941C135.514 2.74014 137.446 4.32747 138.861 6.4114C140.287 8.49533 141 11.0226 141 13.9933ZM133.605 13.9933C133.605 12.069 133.24 10.4462 132.51 9.12494C131.792 7.80364 130.775 6.80158 129.462 6.11877C128.148 5.43595 126.609 5.09454 124.846 5.09454C123.083 5.09454 121.545 5.43595 120.231 6.11877C118.917 6.80158 117.895 7.80364 117.165 9.12494C116.446 10.4462 116.087 12.069 116.087 13.9933C116.087 15.9177 116.446 17.5405 117.165 18.8618C117.895 20.1831 118.917 21.1851 120.231 21.8679C121.545 22.5508 123.083 22.8922 124.846 22.8922C126.609 22.8922 128.148 22.5508 129.462 21.8679C130.775 21.1851 131.792 20.1831 132.51 18.8618C133.24 17.5405 133.605 15.9177 133.605 13.9933Z" fill="white"/>
</svg>

